<svg version="1.1" id="Layer_1" xmlns="http://www.w3.org/2000/svg" xmlns:xlink="http://www.w3.org/1999/xlink" x="0px" y="0px"
	 width="100%" viewBox="0 0 750 750" enable-background="new 0 0 750 750" xml:space="preserve">
<path fill="#000000" opacity="1.000000" stroke="none" 
	d="
M499.000000,751.000000 
	C332.666656,751.000000 166.833328,751.000000 1.000000,751.000000 
	C1.000000,501.000000 1.000000,251.000000 1.000000,1.000000 
	C251.000000,1.000000 501.000000,1.000000 751.000000,1.000000 
	C751.000000,251.000000 751.000000,501.000000 751.000000,751.000000 
	C667.166687,751.000000 583.333313,751.000000 499.000000,751.000000 
M339.264618,329.380127 
	C339.571899,336.258240 339.879181,343.136322 340.040558,350.913727 
	C340.033569,373.841034 339.835449,396.771362 340.195343,419.692932 
	C340.260345,423.833984 342.617371,427.939117 344.218140,432.715179 
	C347.002625,440.104706 352.788666,444.895355 359.277710,448.505402 
	C370.867157,454.952881 383.729828,452.808136 396.219696,452.834808 
	C405.947357,452.855560 415.675079,452.838928 426.542145,452.838928 
	C423.411896,455.257843 420.777588,457.045319 418.430450,459.152679 
	C410.624268,466.161438 401.356567,468.951935 391.072479,469.028290 
	C389.248810,469.041809 387.370758,468.919647 385.611816,469.297638 
	C374.220428,471.745422 363.719269,468.779694 353.468933,464.200409 
	C350.618134,462.926880 347.823517,461.527557 344.368561,459.780975 
	C343.981415,458.909515 343.778381,457.876160 343.177429,457.192657 
	C339.041443,452.488525 333.867065,448.402771 330.832703,443.087189 
	C324.881897,432.662567 322.100281,421.064392 322.001343,408.945648 
	C321.944336,401.966400 321.885651,394.987122 321.952789,387.076996 
	C321.909454,379.384918 321.866150,371.692841 321.953613,363.070862 
	C321.964691,360.254028 322.096191,357.431488 321.962616,354.621552 
	C321.651520,348.076263 321.212769,341.537048 320.958160,334.091125 
	C320.912567,325.391022 320.867004,316.690887 320.952332,307.062775 
	C321.240936,285.708496 321.529510,264.354248 321.951599,242.076950 
	C322.517303,231.429581 320.402802,221.406845 316.353546,211.475540 
	C312.814545,202.795639 306.186157,196.961212 299.460815,191.544891 
	C293.835052,187.014175 286.869324,182.630096 279.967804,181.544128 
	C268.654572,179.763977 257.140656,178.835052 245.514633,183.685150 
	C232.198685,189.240280 221.251312,196.933395 214.487183,209.473602 
	C210.795486,216.317703 207.721130,223.604507 207.860809,232.082825 
	C208.294113,258.382843 208.025330,284.694366 208.046310,311.001404 
	C208.048965,314.329681 208.154510,317.657867 208.057999,321.913788 
	C208.102234,331.273071 208.146469,340.632355 208.040894,350.919312 
	C208.087234,360.614685 208.133575,370.310089 208.037445,380.852905 
	C208.077850,382.574341 208.118271,384.295776 208.016785,386.942871 
	C208.008209,395.904755 208.176163,404.871063 207.953522,413.827606 
	C207.517593,431.365112 211.661606,448.160034 217.506470,464.335938 
	C221.525986,475.460114 226.179871,486.672424 234.209991,496.690613 
	C235.811630,498.964142 237.211349,501.417877 239.050674,503.479340 
	C246.155609,511.442200 253.029495,519.666992 260.714691,527.038086 
	C266.552307,532.637146 273.488586,537.090637 280.037445,542.778564 
	C291.696014,551.075012 304.581909,557.053528 317.910217,561.951965 
	C334.186737,567.933899 351.188843,571.131226 368.473206,571.814758 
	C380.218719,572.279175 392.049042,571.641968 403.789062,570.782227 
	C410.102539,570.319885 416.421692,568.746765 422.529419,566.960632 
	C430.346252,564.674866 438.083496,561.986816 445.611786,558.882324 
	C452.750580,555.938477 459.955444,552.831238 466.440430,548.709106 
	C474.220856,543.763611 481.373352,537.797668 488.613770,532.042114 
	C502.799072,520.765930 513.738892,506.630615 522.912476,491.199310 
	C530.321960,478.735474 535.232788,465.112549 539.682190,450.640137 
	C541.125977,439.099457 545.074890,427.855072 543.906006,415.060944 
	C543.918457,406.248810 543.936768,397.436646 543.942322,388.624512 
	C543.954773,368.838440 543.656250,349.044830 544.146301,329.270691 
	C544.303162,322.940918 543.807678,317.482880 538.977234,312.239624 
	C536.601501,307.389038 532.383301,304.615723 527.896851,301.590881 
	C528.216064,300.495789 528.535278,299.400665 529.594299,297.763062 
	C529.716370,294.292236 530.187622,290.792114 529.899475,287.355682 
	C528.726746,273.370300 526.915771,259.426453 526.155640,245.423019 
	C525.708435,237.184250 516.135925,227.304550 507.590027,229.155014 
	C504.452606,229.834351 501.303833,230.550262 498.122009,230.877899 
	C497.244354,230.968262 496.228882,229.720459 495.048889,228.357941 
	C490.699982,219.094498 486.024719,209.966461 482.107941,200.523758 
	C479.102386,193.277863 475.931549,187.415405 467.044525,185.702118 
	C460.587921,184.457352 455.359955,185.970230 450.933411,189.587601 
	C444.039673,195.221161 437.925385,201.800858 431.383484,207.874802 
	C423.898346,214.824509 416.302307,221.654724 408.762787,228.545975 
	C401.714844,234.987915 394.578430,241.337357 387.663788,247.919571 
	C380.632843,254.612488 373.856079,261.571594 366.911591,268.356384 
	C359.227295,275.863953 351.446686,283.273041 343.781464,290.799805 
	C341.870819,292.675934 340.242523,294.839661 338.484497,296.871185 
	C338.722137,297.368500 338.959778,297.865784 339.197418,298.363068 
	C340.806519,298.573364 342.413666,298.944763 344.025116,298.964478 
	C349.356812,299.029755 354.690826,298.932312 360.021179,299.037628 
	C360.367950,299.044495 360.691376,300.234344 360.252106,300.976105 
	C356.841888,302.621490 352.980164,303.707153 350.110229,306.022339 
	C342.923004,311.820251 339.743805,319.735657 339.264618,329.380127 
z"/>
<path fill="#38CA91" opacity="1.000000" stroke="none" 
	d="
M321.818115,242.999969 
	C321.529510,264.354248 321.240936,285.708496 320.566040,307.327148 
	C319.787689,303.208496 319.541046,298.805359 318.940002,294.451172 
	C318.654572,292.383270 317.693176,290.408722 317.037994,288.391876 
	C315.147705,290.656311 313.206268,292.881775 311.421875,295.226807 
	C311.151855,295.581696 311.722229,296.493713 311.717133,297.146545 
	C311.692810,300.280914 310.415222,301.891907 307.531769,299.587219 
	C305.276855,297.784882 304.223450,298.652527 302.631622,300.373352 
	C301.473755,301.625000 299.768188,302.701263 298.122406,303.106110 
	C293.757050,304.179932 290.743652,305.433563 289.185638,310.792023 
	C288.210480,314.145691 281.762634,315.576599 279.646942,319.022400 
	C277.486053,322.541809 275.983032,324.570648 271.692444,323.589478 
	C270.790680,323.383240 269.559143,324.664246 268.467041,325.236053 
	C265.782227,326.641785 263.178619,328.260223 260.371704,329.356079 
	C258.295441,330.166626 255.810654,329.946716 253.753632,330.787323 
	C248.884872,332.776886 244.983429,336.219299 238.685822,335.455780 
	C233.008499,334.767456 227.134125,337.409241 222.761887,342.051239 
	C221.563629,343.323425 219.517212,344.848389 218.139709,344.613953 
	C216.666611,344.363251 215.371704,342.282135 214.282593,340.792633 
	C213.315979,339.470673 212.738052,337.864502 211.988525,336.383820 
	C211.435883,336.570831 210.883224,336.757874 210.330566,336.944885 
	C210.217361,339.356750 210.298569,341.798767 209.930832,344.171173 
	C209.623520,346.153595 208.790771,348.054596 208.190704,349.991638 
	C208.146469,340.632355 208.102234,331.273071 208.449371,321.244751 
	C209.220459,318.685638 209.910156,316.798615 209.928818,314.905029 
	C210.038681,303.759644 210.208038,292.606812 209.903702,281.468903 
	C209.759964,276.209015 210.275528,271.675659 215.411697,268.757935 
	C217.788010,270.121521 220.524551,273.051392 222.661133,268.685730 
	C225.951584,261.962463 227.857513,253.816971 238.267441,255.777817 
	C238.554504,255.831894 238.893066,255.587311 239.212341,255.499130 
	C248.278030,252.995209 254.589111,244.695663 264.324585,243.547882 
	C265.043488,243.463120 265.614319,242.494400 266.355743,242.167328 
	C271.151276,240.051987 276.102753,238.250824 280.761261,235.872955 
	C288.834076,231.752335 297.021301,227.729294 304.572784,222.770309 
	C308.057098,220.482193 311.019897,218.444183 315.747894,218.973297 
	C316.529663,223.536758 317.066772,228.123260 318.156677,232.574432 
	C319.028473,236.134995 320.572449,239.530960 321.818115,242.999969 
z"/>
<path fill="#80CC9C" opacity="1.000000" stroke="none" 
	d="
M528.854492,298.305573 
	C528.535278,299.400665 528.216064,300.495789 527.442810,301.861572 
	C523.956360,301.987518 520.924011,301.842743 517.541138,301.640411 
	C515.762085,301.444489 514.333496,301.306122 512.697144,301.127319 
	C512.489441,301.086853 512.067017,301.113525 511.596130,301.066406 
	C497.389130,301.253754 483.652985,301.488251 469.543091,301.555969 
	C449.734039,301.327057 430.298737,301.259460 410.863434,301.226990 
	C410.228119,301.225922 409.592255,301.582764 408.605713,301.634766 
	C401.855804,301.446655 395.456451,301.427612 389.058014,301.339264 
	C379.713531,301.210266 370.369751,301.031464 361.025665,300.873901 
	C360.691376,300.234344 360.367950,299.044495 360.021179,299.037628 
	C354.690826,298.932312 349.356812,299.029755 344.025116,298.964478 
	C342.413666,298.944763 340.806519,298.573364 339.197418,298.363068 
	C338.959778,297.865784 338.722137,297.368500 338.484497,296.871185 
	C340.242523,294.839661 341.870819,292.675934 343.781464,290.799805 
	C351.446686,283.273041 359.227295,275.863953 366.911591,268.356384 
	C373.856079,261.571594 380.632843,254.612488 387.663788,247.919571 
	C394.578430,241.337357 401.714844,234.987915 408.762787,228.545975 
	C416.302307,221.654724 423.898346,214.824509 431.383484,207.874802 
	C437.925385,201.800858 444.039673,195.221161 450.933411,189.587601 
	C455.359955,185.970230 460.587921,184.457352 467.044525,185.702118 
	C475.931549,187.415405 479.102386,193.277863 482.107941,200.523758 
	C486.024719,209.966461 490.699982,219.094498 494.872437,228.946945 
	C493.357147,234.269073 490.889252,237.517990 486.024231,239.801239 
	C464.490784,249.907349 443.162537,260.455963 421.851227,271.028229 
	C408.587738,277.608063 395.457550,284.459961 382.348328,291.343628 
	C380.584076,292.270050 379.293579,294.098724 377.783691,295.509583 
	C378.013702,295.991241 378.243683,296.472870 378.473663,296.954529 
	C381.866943,297.557037 385.261688,298.687073 388.653229,298.677429 
	C412.780365,298.608765 436.906464,298.241028 461.033691,298.121124 
	C468.008789,298.086456 474.986664,298.755951 481.962708,298.744080 
	C497.593506,298.717468 513.223938,298.465668 528.854492,298.305573 
z"/>
<path fill="#F2D680" opacity="1.000000" stroke="none" 
	d="
M529.224365,298.034302 
	C513.223938,298.465668 497.593506,298.717468 481.962708,298.744080 
	C474.986664,298.755951 468.008789,298.086456 461.033691,298.121124 
	C436.906464,298.241028 412.780365,298.608765 388.653229,298.677429 
	C385.261688,298.687073 381.866943,297.557037 378.473663,296.954529 
	C378.243683,296.472870 378.013702,295.991241 377.783691,295.509583 
	C379.293579,294.098724 380.584076,292.270050 382.348328,291.343628 
	C395.457550,284.459961 408.587738,277.608063 421.851227,271.028229 
	C443.162537,260.455963 464.490784,249.907349 486.024231,239.801239 
	C490.889252,237.517990 493.357147,234.269073 494.986328,229.311310 
	C496.228882,229.720459 497.244354,230.968262 498.122009,230.877899 
	C501.303833,230.550262 504.452606,229.834351 507.590027,229.155014 
	C516.135925,227.304550 525.708435,237.184250 526.155640,245.423019 
	C526.915771,259.426453 528.726746,273.370300 529.899475,287.355682 
	C530.187622,290.792114 529.716370,294.292236 529.224365,298.034302 
z"/>
<path fill="#169D88" opacity="1.000000" stroke="none" 
	d="
M345.003143,460.185913 
	C347.823517,461.527557 350.618134,462.926880 353.468933,464.200409 
	C363.719269,468.779694 374.220428,471.745422 385.611816,469.297638 
	C387.370758,468.919647 389.248810,469.041809 391.072479,469.028290 
	C401.356567,468.951935 410.624268,466.161438 418.430450,459.152679 
	C420.777588,457.045319 423.411896,455.257843 426.542145,452.838928 
	C415.675079,452.838928 405.947357,452.855560 396.219696,452.834808 
	C383.729828,452.808136 370.867157,454.952881 359.277710,448.505402 
	C352.788666,444.895355 347.002625,440.104706 344.435730,432.400360 
	C346.093323,432.401459 347.533325,432.717377 349.009247,433.389313 
	C354.907043,443.756409 364.069733,448.560120 375.241211,448.880341 
	C391.148407,449.336273 407.078491,448.994171 423.388000,449.026306 
	C425.764160,450.005920 427.751129,450.952301 429.738098,451.898651 
	C428.644196,453.617706 427.507019,455.311066 426.467590,457.062439 
	C425.223206,459.159210 424.062317,461.305542 422.865295,463.430420 
	C425.715668,463.876190 428.560211,464.564117 431.419647,464.632843 
	C432.385406,464.656067 433.288605,462.924438 434.398834,462.325958 
	C436.016876,461.453766 438.032013,459.975647 439.463196,460.348358 
	C443.957428,461.518585 444.856232,459.662811 445.254822,455.689240 
	C445.800659,450.247528 447.049713,449.712372 452.576263,450.781372 
	C456.438904,451.528503 459.546021,450.947327 460.232788,446.156097 
	C460.669128,443.111938 463.097687,442.276520 465.505402,440.633026 
	C471.839325,436.309479 477.417358,430.863464 484.454529,427.476379 
	C484.570740,427.420441 484.596954,427.184998 484.673218,427.037476 
	C488.061646,420.482147 493.472198,418.206543 500.401642,420.426544 
	C503.738037,421.495392 505.431610,420.873474 506.218445,416.857513 
	C506.737427,414.208435 508.838562,410.818054 511.145538,409.767822 
	C518.040405,406.628998 524.424316,403.801086 525.367493,394.881439 
	C525.747986,391.283661 528.295227,390.257538 531.342468,393.228424 
	C531.694092,393.571259 532.728149,393.214203 533.940674,393.159180 
	C533.117004,391.404572 532.521362,390.135620 531.934021,388.884430 
	C532.893555,388.141113 533.770874,387.461426 534.588928,386.827728 
	C533.945068,385.253235 532.572205,383.322906 533.009338,382.732483 
	C535.783447,378.985260 538.957520,375.534088 542.006287,372.454895 
	C542.018555,385.343018 541.949158,397.762573 542.108276,410.179169 
	C542.133240,412.123108 543.197083,414.053741 543.780518,415.990509 
	C545.074890,427.855072 541.125977,439.099457 539.144409,450.679932 
	C538.069763,450.483490 537.532898,450.247223 537.008911,449.591797 
	C537.866394,444.949982 539.077576,440.760284 539.459717,436.496246 
	C539.906860,431.507385 543.782715,425.600403 536.675232,422.049744 
	C535.359131,421.392242 533.829956,421.161346 532.399109,420.733582 
	C532.220398,422.234650 531.811584,423.751984 531.916199,425.233032 
	C532.078918,427.534821 532.591064,429.811920 533.110107,433.074066 
	C530.462219,432.302734 529.098328,431.837830 527.702209,431.510345 
	C521.375000,430.026215 515.823486,432.260254 510.512360,435.307343 
	C508.731537,436.328979 507.342407,438.427643 505.495667,438.869202 
	C498.896881,440.447235 494.565033,447.454895 486.962280,446.480255 
	C486.606262,446.434662 485.912231,446.947052 485.809479,447.319336 
	C484.477966,452.142487 481.212402,453.217438 476.708405,452.320526 
	C476.082886,452.195923 475.300781,453.273041 474.532959,453.381500 
	C468.680237,454.208130 463.023712,455.289490 460.444763,461.667877 
	C460.402588,461.772156 460.104736,461.747864 459.998474,461.855164 
	C458.624054,463.242035 457.214996,464.599396 455.918762,466.056763 
	C455.283691,466.770782 455.000549,468.245331 454.326355,468.406616 
	C448.659760,469.761963 445.675629,474.276184 442.131348,478.209045 
	C441.325134,479.103607 439.847137,479.424042 438.642273,479.921265 
	C436.382843,480.853729 434.119019,481.785004 431.813843,482.593658 
	C430.461548,483.068024 428.876740,483.870148 427.654205,483.547729 
	C423.031464,482.328613 421.364044,484.856171 419.982056,488.553711 
	C419.518799,489.793060 417.821167,491.535156 416.815186,491.454681 
	C408.916779,490.822784 402.597107,494.108704 396.009674,497.983582 
	C390.754639,501.074768 384.550446,503.214569 378.517517,504.131592 
	C372.684082,505.018311 366.243744,502.189758 361.414520,507.990601 
	C360.740021,508.800781 358.892487,509.051788 357.663208,508.909790 
	C352.612793,508.326324 350.255066,510.916443 349.383392,515.458313 
	C348.815002,518.419861 347.026978,520.038391 344.099426,519.362793 
	C339.723145,518.352783 338.298248,520.536133 336.993317,524.209656 
	C336.308289,526.138123 333.999969,527.610107 332.188446,528.974548 
	C331.046600,529.834534 329.412872,530.006042 328.094482,530.673462 
	C322.518982,533.495911 317.119202,536.714172 311.393646,539.180542 
	C302.424530,543.044189 302.335571,542.836182 304.956024,551.510437 
	C305.003113,551.666321 304.985931,551.841492 304.630676,551.979980 
	C301.168762,550.306641 298.074890,548.660889 295.143311,546.748169 
	C295.323914,545.264099 295.342285,544.046936 295.360657,542.829834 
	C294.235229,543.228027 293.109772,543.626221 291.618530,544.017090 
	C289.501801,543.337036 287.750916,542.664368 286.028564,541.632812 
	C286.987793,536.259216 293.586517,533.765381 292.140625,527.651550 
	C292.085052,527.416504 292.764740,526.824402 293.193909,526.687378 
	C296.220825,525.721375 299.305176,524.928040 302.308136,523.895996 
	C308.170532,521.881348 314.068634,519.933777 319.795990,517.579163 
	C322.469604,516.479980 324.878174,514.626038 327.207703,512.852539 
	C328.185089,512.108459 328.728851,510.728271 329.322723,509.562408 
	C330.230164,507.781067 330.537720,505.366394 331.925018,504.213318 
	C338.317017,498.900574 347.911346,501.488007 354.154480,495.518005 
	C354.238464,495.437683 354.487091,495.558716 354.640930,495.518005 
	C356.869568,494.928436 359.095154,494.327301 361.321442,493.728912 
	C360.632904,491.694092 359.862244,489.682373 359.282288,487.617065 
	C358.831329,486.011261 358.617981,484.338715 358.299042,482.695831 
	C358.913818,482.423645 359.528564,482.151489 360.143341,481.879333 
	C361.578278,483.549774 363.157440,485.118744 364.418701,486.911377 
	C367.214020,490.884369 371.395233,491.341949 374.145203,487.500183 
	C377.017761,483.487122 380.026733,483.018311 383.753876,486.103638 
	C386.569061,488.434082 389.624512,488.279480 391.709900,485.575165 
	C395.523834,480.629425 401.001617,478.364349 406.058868,475.299622 
	C407.713165,474.297089 408.554993,471.953979 409.751740,470.247711 
	C399.826935,471.593597 390.910828,472.802704 381.560028,474.007629 
	C376.751648,473.671906 372.377991,473.340302 367.646545,472.858398 
	C363.192108,471.472656 359.095428,470.237152 354.721252,468.791809 
	C350.246613,466.964203 346.233124,465.139954 345.003143,460.185913 
M419.926910,467.259277 
	C417.612762,464.117004 416.000793,464.266418 412.089417,468.874969 
	C415.142761,468.371643 417.283936,468.018677 419.926910,467.259277 
z"/>
<path fill="#43D490" opacity="1.000000" stroke="none" 
	d="
M321.884857,242.538452 
	C320.572449,239.530960 319.028473,236.134995 318.156677,232.574432 
	C317.066772,228.123260 316.529663,223.536758 315.747894,218.973297 
	C311.019897,218.444183 308.057098,220.482193 304.572784,222.770309 
	C297.021301,227.729294 288.834076,231.752335 280.761261,235.872955 
	C276.102753,238.250824 271.151276,240.051987 266.355743,242.167328 
	C265.614319,242.494400 265.043488,243.463120 264.324585,243.547882 
	C254.589111,244.695663 248.278030,252.995209 239.212341,255.499130 
	C238.893066,255.587311 238.554504,255.831894 238.267441,255.777817 
	C227.857513,253.816971 225.951584,261.962463 222.661133,268.685730 
	C220.524551,273.051392 217.788010,270.121521 215.411697,268.757935 
	C210.275528,271.675659 209.759964,276.209015 209.903702,281.468903 
	C210.208038,292.606812 210.038681,303.759644 209.928818,314.905029 
	C209.910156,316.798615 209.220459,318.685638 208.526581,320.780884 
	C208.154510,317.657867 208.048965,314.329681 208.046310,311.001404 
	C208.025330,284.694366 208.294113,258.382843 207.860809,232.082825 
	C207.721130,223.604507 210.795486,216.317703 214.487183,209.473602 
	C221.251312,196.933395 232.198685,189.240280 245.514633,183.685150 
	C257.140656,178.835052 268.654572,179.763977 279.967804,181.544128 
	C286.869324,182.630096 293.835052,187.014175 299.460815,191.544891 
	C306.186157,196.961212 312.814545,202.795639 316.353546,211.475540 
	C320.402802,221.406845 322.517303,231.429581 321.884857,242.538452 
z"/>
<path fill="#21AD8D" opacity="1.000000" stroke="none" 
	d="
M348.973328,433.033264 
	C347.533325,432.717377 346.093323,432.401459 344.284790,432.073181 
	C342.617371,427.939117 340.260345,423.833984 340.195343,419.692932 
	C339.835449,396.771362 340.033569,373.841034 340.434631,350.661072 
	C341.216705,352.124695 341.888397,353.832550 341.939331,355.558746 
	C342.091095,360.703278 341.999176,365.855011 342.001129,371.472168 
	C341.999817,381.939514 341.999817,391.938660 341.999817,402.470856 
	C344.390228,400.725159 345.781555,399.709106 347.172882,398.693054 
	C348.006653,400.389679 349.138062,402.010773 349.592834,403.803528 
	C350.074371,405.701752 349.702271,407.806610 350.101074,409.739044 
	C350.395203,411.164154 351.328705,412.457245 351.901947,413.652100 
	C355.044952,410.397034 358.566589,408.256470 359.760590,405.205109 
	C362.390259,398.484863 367.449219,396.805817 373.673187,395.743378 
	C375.626495,395.409912 378.092529,393.345642 378.803070,391.490967 
	C380.119659,388.054230 381.884979,387.772522 384.947784,388.625793 
	C386.475494,389.051453 388.782684,389.236176 389.818451,388.396454 
	C393.070068,385.760529 396.942963,383.179077 395.499146,378.111145 
	C395.992523,377.854218 396.128082,377.753906 396.280029,377.708832 
	C401.299438,376.218414 407.144531,378.839447 411.707214,373.835266 
	C412.842834,372.589722 417.707245,373.765686 420.266785,375.027466 
	C424.048035,376.891449 425.925720,376.747559 427.342987,372.691162 
	C427.803345,371.373566 427.796448,369.892670 427.945862,368.876831 
	C430.262848,368.339142 432.960175,368.541931 433.910767,367.350769 
	C438.292603,361.860229 444.227417,358.588684 449.963593,354.972290 
	C450.357025,354.724274 450.553528,354.176056 450.868011,353.788910 
	C459.167786,343.571838 470.408234,339.201172 482.980682,336.820770 
	C490.066437,335.479218 497.396637,334.775299 502.104950,327.059570 
	C507.079773,318.907013 510.118561,319.019043 519.055176,323.136292 
	C522.263123,324.614197 525.308655,324.865692 527.438477,320.743103 
	C528.313354,319.049591 530.668823,317.870209 532.601746,317.044189 
	C534.565063,316.205231 537.216797,316.425568 536.406372,313.037109 
	C537.553345,313.014282 538.318054,312.999664 539.082764,312.985046 
	C543.807678,317.482880 544.303162,322.940918 544.146301,329.270691 
	C543.656250,349.044830 543.954773,368.838440 543.942322,388.624512 
	C543.936768,397.436646 543.918457,406.248810 543.843262,415.525726 
	C543.197083,414.053741 542.133240,412.123108 542.108276,410.179169 
	C541.949158,397.762573 542.018555,385.343018 542.011780,371.987976 
	C542.004028,363.698151 541.997192,356.344818 541.994934,348.523682 
	C541.999634,342.736481 542.280457,337.397064 541.904724,332.104279 
	C541.638000,328.347290 540.831238,324.535675 539.620239,320.967468 
	C538.617798,318.013977 536.740173,317.795685 534.580872,320.565491 
	C531.563171,324.436340 534.004517,327.176056 536.516418,330.044006 
	C528.697327,331.228668 528.587402,331.167694 524.458191,338.610382 
	C520.843079,345.126312 514.828430,347.563782 508.209229,346.649323 
	C502.774872,345.898560 499.176300,347.013519 495.401428,350.789795 
	C491.920441,354.272156 488.288422,357.607849 482.079224,356.538971 
	C477.531189,355.756104 473.487549,358.164307 472.757874,363.982361 
	C472.527649,365.818115 470.722351,367.755707 469.154480,369.070099 
	C463.651031,373.683929 463.614075,374.003845 470.017700,377.378967 
	C470.017303,378.505768 470.018219,379.257141 469.817139,380.311340 
	C467.789703,385.579346 466.242676,386.181061 462.082184,383.544159 
	C453.206268,377.918610 446.354095,380.251434 442.715424,390.074982 
	C441.425537,393.557251 439.973206,396.979401 439.153748,399.030579 
	C434.505768,399.666260 430.885437,400.021332 427.320953,400.679169 
	C420.714233,401.898499 414.137604,403.282135 407.558502,404.645905 
	C407.127960,404.735138 406.797791,405.257202 406.395172,405.541473 
	C404.272797,407.040131 402.057983,408.421783 400.032471,410.040741 
	C396.251343,413.062836 392.147583,415.840210 388.981812,419.428467 
	C385.809052,423.024628 382.038544,424.595032 377.733643,424.280670 
	C373.564056,423.976196 371.010071,424.892822 369.844574,429.121094 
	C369.560547,430.151520 368.221222,431.469421 367.255890,431.568146 
	C366.323181,431.663544 364.866333,430.583740 364.296661,429.628418 
	C360.957031,424.027924 357.084381,424.121796 353.438232,429.743164 
	C352.496796,431.194580 350.490479,431.955292 348.973328,433.033264 
z"/>
<path fill="#30BF8F" opacity="1.000000" stroke="none" 
	d="
M208.115784,350.455475 
	C208.790771,348.054596 209.623520,346.153595 209.930832,344.171173 
	C210.298569,341.798767 210.217361,339.356750 210.330566,336.944885 
	C210.883224,336.757874 211.435883,336.570831 211.988525,336.383820 
	C212.738052,337.864502 213.315979,339.470673 214.282593,340.792633 
	C215.371704,342.282135 216.666611,344.363251 218.139709,344.613953 
	C219.517212,344.848389 221.563629,343.323425 222.761887,342.051239 
	C227.134125,337.409241 233.008499,334.767456 238.685822,335.455780 
	C244.983429,336.219299 248.884872,332.776886 253.753632,330.787323 
	C255.810654,329.946716 258.295441,330.166626 260.371704,329.356079 
	C263.178619,328.260223 265.782227,326.641785 268.467041,325.236053 
	C269.559143,324.664246 270.790680,323.383240 271.692444,323.589478 
	C275.983032,324.570648 277.486053,322.541809 279.646942,319.022400 
	C281.762634,315.576599 288.210480,314.145691 289.185638,310.792023 
	C290.743652,305.433563 293.757050,304.179932 298.122406,303.106110 
	C299.768188,302.701263 301.473755,301.625000 302.631622,300.373352 
	C304.223450,298.652527 305.276855,297.784882 307.531769,299.587219 
	C310.415222,301.891907 311.692810,300.280914 311.717133,297.146545 
	C311.722229,296.493713 311.151855,295.581696 311.421875,295.226807 
	C313.206268,292.881775 315.147705,290.656311 317.037994,288.391876 
	C317.693176,290.408722 318.654572,292.383270 318.940002,294.451172 
	C319.541046,298.805359 319.787689,303.208496 320.500580,307.791168 
	C320.867004,316.690887 320.912567,325.391022 320.585449,334.362823 
	C319.516937,332.481842 318.821106,330.329163 318.125275,328.176483 
	C316.951813,330.932587 317.493713,333.688599 316.818207,336.104248 
	C315.921051,339.312469 314.755096,344.134003 312.504272,344.949554 
	C306.435913,347.148346 299.767120,348.044128 293.265472,348.559021 
	C289.429932,348.862762 286.942261,350.361908 288.101318,354.004456 
	C289.023773,356.903381 288.423401,358.236755 285.524170,359.194000 
	C281.178802,360.628723 276.902191,362.326294 272.726746,364.202332 
	C269.824554,365.506287 267.305389,367.913208 264.317200,368.709564 
	C260.866302,369.629150 259.130524,371.080597 258.883606,374.669647 
	C258.627258,378.396271 256.562256,379.700409 253.072479,378.011932 
	C249.395248,376.232666 246.162979,377.259583 243.403595,379.739868 
	C241.251465,381.674316 239.492340,384.045990 237.538940,386.245483 
	C231.698349,382.039673 231.872360,382.118378 228.574509,389.409271 
	C228.029251,390.614716 224.644135,391.846527 223.535294,391.256042 
	C219.065613,388.875977 214.651474,388.815643 209.990204,389.611206 
	C209.982101,388.146088 209.975876,387.080780 210.164398,385.739655 
	C209.632706,383.644409 208.906311,381.824921 208.179916,380.005463 
	C208.133575,370.310089 208.087234,360.614685 208.115784,350.455475 
z"/>
<path fill="#24B28F" opacity="1.000000" stroke="none" 
	d="
M321.822815,364.000763 
	C321.866150,371.692841 321.909454,379.384918 321.552979,387.649628 
	C320.105988,390.626221 318.189087,393.022766 318.168427,395.435516 
	C318.095520,403.953613 318.672211,412.477295 318.907043,421.337341 
	C315.835541,424.485565 311.246002,426.102905 311.623505,431.399902 
	C311.632507,431.526367 311.457458,431.766541 311.339386,431.787018 
	C306.127502,432.689972 303.072113,436.647125 299.610718,440.032227 
	C299.506073,440.134613 299.299957,440.140289 299.137787,440.175842 
	C294.782959,441.130798 290.412567,442.020355 286.077057,443.056061 
	C282.243896,443.971771 278.370728,444.618195 276.479218,449.084259 
	C275.934418,450.370483 273.160492,451.637634 271.614624,451.423859 
	C262.004303,450.094849 254.496216,453.369995 248.165970,460.526764 
	C246.172974,462.779938 243.356491,465.096313 240.563187,465.674286 
	C235.742447,466.671753 232.214920,468.356354 230.489288,473.217987 
	C230.138474,474.206360 228.669693,475.101501 227.555313,475.368896 
	C227.096802,475.478973 225.955048,473.919830 225.562912,472.943634 
	C222.179352,464.521057 218.593262,456.159637 215.713043,447.563721 
	C214.313873,443.388000 213.285797,438.588226 213.967773,434.374939 
	C214.502090,431.073792 213.735306,429.182251 212.315399,426.902649 
	C215.955551,425.153320 220.291077,425.031158 221.552856,420.307007 
	C221.789474,419.421143 223.734680,418.407654 224.859390,418.444031 
	C229.738510,418.601776 234.601196,419.223114 239.480362,419.454437 
	C240.800873,419.517029 242.416336,419.146881 243.444748,418.374207 
	C245.578430,416.771057 247.409470,414.765106 249.364914,412.924774 
	C249.914536,413.156067 250.464157,413.387360 251.013763,413.618683 
	C250.424805,411.966431 249.835831,410.314209 249.252808,408.678619 
	C249.394073,408.597168 249.541061,408.437683 249.676147,408.447174 
	C250.333206,408.493408 250.985245,408.621582 251.642380,408.654358 
	C255.925446,408.868225 261.328369,410.896973 260.720490,403.027344 
	C260.701050,402.775696 263.197632,401.751373 263.949585,402.154266 
	C265.073517,402.756439 265.689026,404.307556 265.856720,404.538910 
	C269.965454,402.886688 273.411926,401.401947 276.932617,400.121246 
	C279.127808,399.322693 281.460297,398.909760 283.685852,398.184601 
	C286.732849,397.191772 289.674072,395.444244 292.772644,395.132111 
	C298.659058,394.539185 298.744873,394.685120 297.921722,388.525299 
	C297.706940,386.917908 297.739624,384.375183 298.690613,383.685913 
	C301.383972,381.733917 304.611725,380.519348 307.607544,379.024994 
	C308.794128,380.907928 309.256866,382.386719 310.254028,383.008728 
	C311.193024,383.594421 312.768127,383.553314 313.921722,383.249634 
	C314.578278,383.076782 315.214233,381.886566 315.408264,381.049866 
	C316.564392,376.064911 317.461639,371.015564 318.773956,366.075043 
	C319.012482,365.177002 320.767761,364.681885 321.822815,364.000763 
z"/>
<path fill="#0D8D84" opacity="1.000000" stroke="none" 
	d="
M294.981018,547.015137 
	C298.074890,548.660889 301.168762,550.306641 304.837769,552.255676 
	C309.609924,554.371826 313.806915,556.184570 318.272858,558.240967 
	C336.456909,565.145813 355.015533,568.284912 374.084778,568.586853 
	C374.690460,568.596436 375.780884,568.272461 375.839478,567.955200 
	C376.566315,564.017944 381.373535,562.651489 382.151825,560.018799 
	C383.606628,555.098022 386.474396,553.139038 390.615570,551.401245 
	C392.304077,550.692749 393.403839,548.634277 394.841309,547.263306 
	C397.716644,544.520874 400.470673,541.600525 403.641876,539.248535 
	C404.658783,538.494324 407.202698,538.720520 408.405182,539.495544 
	C412.123047,541.891846 414.651703,541.568542 415.695038,537.479309 
	C416.451172,534.515686 417.536896,533.996277 420.629578,533.594727 
	C428.549072,532.566406 436.351593,530.548157 444.133270,528.648743 
	C445.222626,528.382812 446.401520,526.685791 446.737488,525.435791 
	C448.392670,519.277527 453.719055,517.037476 458.355316,514.002075 
	C460.030029,512.905579 462.009613,511.908783 463.082916,510.341217 
	C464.916382,507.663574 466.662537,507.578339 468.742493,509.630981 
	C472.322266,513.163696 474.076385,511.097412 474.809723,507.496185 
	C475.625763,503.488892 477.987732,501.043945 481.751556,500.697693 
	C486.701324,500.242371 489.666687,493.927795 495.520691,496.313324 
	C496.020630,496.517059 497.220520,494.938995 498.124573,494.225861 
	C502.668030,490.641937 507.030212,486.769135 511.892334,483.685669 
	C513.277161,482.807404 516.167419,484.083801 518.282104,484.676392 
	C519.211792,484.936890 519.928223,485.958832 521.120972,486.950592 
	C524.000854,480.983215 526.808289,475.573425 529.237610,469.998810 
	C531.076782,465.778503 532.433472,461.347961 534.201355,456.716858 
	C535.263916,454.285461 536.129944,452.148224 536.996033,450.010986 
	C537.532898,450.247223 538.069763,450.483490 538.824219,450.920197 
	C535.232788,465.112549 530.321960,478.735474 522.912476,491.199310 
	C513.738892,506.630615 502.799072,520.765930 488.613770,532.042114 
	C481.373352,537.797668 474.220856,543.763611 466.440430,548.709106 
	C459.955444,552.831238 452.750580,555.938477 445.611786,558.882324 
	C438.083496,561.986816 430.346252,564.674866 422.529419,566.960632 
	C416.421692,568.746765 410.102539,570.319885 403.789062,570.782227 
	C392.049042,571.641968 380.218719,572.279175 368.473206,571.814758 
	C351.188843,571.131226 334.186737,567.933899 317.910217,561.951965 
	C304.581909,557.053528 291.696014,551.075012 280.391357,542.402100 
	C281.826813,542.005798 282.908356,541.986023 284.324951,541.975708 
	C285.106659,541.987366 285.553314,541.989563 286.000000,541.991699 
	C287.750916,542.664368 289.501801,543.337036 291.701416,544.332275 
	C293.093750,545.441589 294.037384,546.228333 294.981018,547.015137 
z"/>
<path fill="#2AB98F" opacity="1.000000" stroke="none" 
	d="
M321.888214,363.535828 
	C320.767761,364.681885 319.012482,365.177002 318.773956,366.075043 
	C317.461639,371.015564 316.564392,376.064911 315.408264,381.049866 
	C315.214233,381.886566 314.578278,383.076782 313.921722,383.249634 
	C312.768127,383.553314 311.193024,383.594421 310.254028,383.008728 
	C309.256866,382.386719 308.794128,380.907928 307.607544,379.024994 
	C304.611725,380.519348 301.383972,381.733917 298.690613,383.685913 
	C297.739624,384.375183 297.706940,386.917908 297.921722,388.525299 
	C298.744873,394.685120 298.659058,394.539185 292.772644,395.132111 
	C289.674072,395.444244 286.732849,397.191772 283.685852,398.184601 
	C281.460297,398.909760 279.127808,399.322693 276.932617,400.121246 
	C273.411926,401.401947 269.965454,402.886688 265.856720,404.538910 
	C265.689026,404.307556 265.073517,402.756439 263.949585,402.154266 
	C263.197632,401.751373 260.701050,402.775696 260.720490,403.027344 
	C261.328369,410.896973 255.925446,408.868225 251.642380,408.654358 
	C250.985245,408.621582 250.333206,408.493408 249.676147,408.447174 
	C249.541061,408.437683 249.394073,408.597168 249.252808,408.678619 
	C249.835831,410.314209 250.424805,411.966431 251.013763,413.618683 
	C250.464157,413.387360 249.914536,413.156067 249.364914,412.924774 
	C247.409470,414.765106 245.578430,416.771057 243.444748,418.374207 
	C242.416336,419.146881 240.800873,419.517029 239.480362,419.454437 
	C234.601196,419.223114 229.738510,418.601776 224.859390,418.444031 
	C223.734680,418.407654 221.789474,419.421143 221.552856,420.307007 
	C220.291077,425.031158 215.955551,425.153320 212.284653,426.523010 
	C211.291168,414.171906 210.641617,402.091431 209.992065,390.010986 
	C214.651474,388.815643 219.065613,388.875977 223.535294,391.256042 
	C224.644135,391.846527 228.029251,390.614716 228.574509,389.409271 
	C231.872360,382.118378 231.698349,382.039673 237.538940,386.245483 
	C239.492340,384.045990 241.251465,381.674316 243.403595,379.739868 
	C246.162979,377.259583 249.395248,376.232666 253.072479,378.011932 
	C256.562256,379.700409 258.627258,378.396271 258.883606,374.669647 
	C259.130524,371.080597 260.866302,369.629150 264.317200,368.709564 
	C267.305389,367.913208 269.824554,365.506287 272.726746,364.202332 
	C276.902191,362.326294 281.178802,360.628723 285.524170,359.194000 
	C288.423401,358.236755 289.023773,356.903381 288.101318,354.004456 
	C286.942261,350.361908 289.429932,348.862762 293.265472,348.559021 
	C299.767120,348.044128 306.435913,347.148346 312.504272,344.949554 
	C314.755096,344.134003 315.921051,339.312469 316.818207,336.104248 
	C317.493713,333.688599 316.951813,330.932587 318.125275,328.176483 
	C318.821106,330.329163 319.516937,332.481842 320.519257,334.814941 
	C321.212769,341.537048 321.651520,348.076263 321.962616,354.621552 
	C322.096191,357.431488 321.964691,360.254028 321.888214,363.535828 
z"/>
<path fill="#21AD8D" opacity="1.000000" stroke="none" 
	d="
M209.990189,389.611206 
	C210.641617,402.091431 211.291168,414.171906 211.971466,426.632019 
	C213.735306,429.182251 214.502090,431.073792 213.967773,434.374939 
	C213.285797,438.588226 214.313873,443.388000 215.713043,447.563721 
	C218.593262,456.159637 222.179352,464.521057 225.562912,472.943634 
	C225.955048,473.919830 227.096802,475.478973 227.555313,475.368896 
	C228.669693,475.101501 230.138474,474.206360 230.489288,473.217987 
	C232.214920,468.356354 235.742447,466.671753 240.563187,465.674286 
	C243.356491,465.096313 246.172974,462.779938 248.165970,460.526764 
	C254.496216,453.369995 262.004303,450.094849 271.614624,451.423859 
	C273.160492,451.637634 275.934418,450.370483 276.479218,449.084259 
	C278.370728,444.618195 282.243896,443.971771 286.077057,443.056061 
	C290.412567,442.020355 294.782959,441.130798 299.137787,440.175842 
	C299.299957,440.140289 299.506073,440.134613 299.610718,440.032227 
	C303.072113,436.647125 306.127502,432.689972 311.339386,431.787018 
	C311.457458,431.766541 311.632507,431.526367 311.623505,431.399902 
	C311.246002,426.102905 315.835541,424.485565 319.106384,421.653015 
	C319.341797,424.075714 318.511322,426.841431 319.368683,428.906281 
	C321.874298,434.940704 324.672028,440.928101 328.070435,446.497528 
	C331.804138,452.616364 330.907043,457.376678 324.475098,460.761444 
	C321.691895,462.226074 318.447784,463.298523 316.340881,465.455444 
	C312.865509,469.013367 309.459106,470.381714 304.885529,468.065460 
	C303.428528,467.327576 301.927338,466.348907 300.386993,466.226379 
	C299.460266,466.152679 298.057404,467.328827 297.548798,468.299713 
	C297.172333,469.018372 297.892517,470.311493 298.284943,472.068756 
	C291.018585,470.849792 285.865936,473.123322 282.103302,478.957794 
	C281.266510,480.255341 278.509247,480.239655 276.714600,481.010956 
	C273.758850,482.281250 270.749023,483.497803 267.980499,485.111755 
	C265.024261,486.835144 262.299683,490.670929 259.512024,490.635010 
	C252.222214,490.540924 246.417358,493.559937 240.472351,496.827301 
	C240.068710,497.049133 239.491257,496.954742 238.653656,496.860413 
	C236.853058,496.495239 235.393478,496.277100 233.933899,496.058960 
	C226.179871,486.672424 221.525986,475.460114 217.506470,464.335938 
	C211.661606,448.160034 207.517593,431.365112 207.953522,413.827606 
	C208.176163,404.871063 208.008209,395.904755 208.389755,386.479279 
	C209.165039,386.015625 209.567337,386.015533 209.969666,386.015442 
	C209.975876,387.080780 209.982101,388.146088 209.990189,389.611206 
z"/>
<path fill="#2AB98F" opacity="1.000000" stroke="none" 
	d="
M342.002441,371.003937 
	C341.999176,365.855011 342.091095,360.703278 341.939331,355.558746 
	C341.888397,353.832550 341.216705,352.124695 340.507629,350.211426 
	C339.879181,343.136322 339.571899,336.258240 339.934692,329.355896 
	C341.370239,333.963409 342.135773,338.595184 343.109283,344.485260 
	C345.160980,341.444489 346.200806,338.141052 347.842651,337.808289 
	C352.338318,336.897186 357.113007,336.873871 361.727356,337.201447 
	C365.067993,337.438629 371.681946,335.814148 372.645172,333.221802 
	C373.867828,329.931396 375.222534,327.487122 379.408417,328.555359 
	C379.991211,328.704102 380.940399,327.578766 381.665222,326.977295 
	C383.471405,325.478424 385.253998,323.950775 387.031616,322.417969 
	C390.817413,319.153656 395.644073,316.955597 396.729279,311.141937 
	C397.379761,307.657043 400.148743,306.739532 403.681824,307.361816 
	C408.829346,308.268433 409.747467,307.154022 408.956635,301.772797 
	C409.592255,301.582764 410.228119,301.225922 410.863434,301.226990 
	C430.298737,301.259460 449.734039,301.327057 469.619019,301.917053 
	C469.992157,303.708374 470.402832,305.670013 469.758362,306.119812 
	C466.141785,308.643951 465.600433,312.130768 465.313324,316.139862 
	C465.216888,317.486359 463.027344,318.963257 461.490967,319.861084 
	C459.150391,321.228851 456.594879,322.279236 454.039215,323.214478 
	C451.451935,324.161194 448.277039,326.104614 446.191498,325.340546 
	C439.466064,322.876648 435.029877,324.875702 433.781189,331.997223 
	C433.714447,332.377777 433.215546,332.682526 432.901489,333.041229 
	C428.533752,327.837006 423.876007,327.473846 418.713715,331.747284 
	C417.707672,332.580078 416.599518,333.475403 415.387482,333.840393 
	C410.879791,335.197754 408.105103,338.128448 406.276306,342.400726 
	C405.664703,343.829437 404.062683,345.208771 402.586029,345.820770 
	C398.507202,347.511108 394.337891,349.137482 390.052277,350.136902 
	C384.172668,351.508148 378.164459,353.008575 372.190216,353.101959 
	C366.213501,353.195374 363.924377,355.814941 361.897461,361.221008 
	C360.318817,365.431396 355.130249,368.296875 351.488617,371.698639 
	C351.315430,371.860382 350.424927,371.568604 350.139893,371.247223 
	C347.489594,368.258636 344.747803,369.832428 342.002441,371.003937 
z"/>
<path fill="#1CA68C" opacity="1.000000" stroke="none" 
	d="
M238.994659,497.007446 
	C239.491257,496.954742 240.068710,497.049133 240.472351,496.827301 
	C246.417358,493.559937 252.222214,490.540924 259.512024,490.635010 
	C262.299683,490.670929 265.024261,486.835144 267.980499,485.111755 
	C270.749023,483.497803 273.758850,482.281250 276.714600,481.010956 
	C278.509247,480.239655 281.266510,480.255341 282.103302,478.957794 
	C285.865936,473.123322 291.018585,470.849792 298.284943,472.068756 
	C297.892517,470.311493 297.172333,469.018372 297.548798,468.299713 
	C298.057404,467.328827 299.460266,466.152679 300.386993,466.226379 
	C301.927338,466.348907 303.428528,467.327576 304.885529,468.065460 
	C309.459106,470.381714 312.865509,469.013367 316.340881,465.455444 
	C318.447784,463.298523 321.691895,462.226074 324.475098,460.761444 
	C330.907043,457.376678 331.804138,452.616364 328.070435,446.497528 
	C324.672028,440.928101 321.874298,434.940704 319.368683,428.906281 
	C318.511322,426.841431 319.341797,424.075714 319.201843,421.314514 
	C318.672211,412.477295 318.095520,403.953613 318.168427,395.435516 
	C318.189087,393.022766 320.105988,390.626221 321.490448,388.115051 
	C321.885651,394.987122 321.944336,401.966400 322.001343,408.945648 
	C322.100281,421.064392 324.881897,432.662567 330.832703,443.087189 
	C333.867065,448.402771 339.041443,452.488525 343.177429,457.192657 
	C343.778381,457.876160 343.981415,458.909515 344.685852,459.983459 
	C346.233124,465.139954 350.246613,466.964203 354.517090,469.065765 
	C351.343750,472.304779 347.416992,474.579651 345.037933,477.947754 
	C342.562805,481.451965 339.365692,482.430298 335.870087,484.014496 
	C331.682495,485.912262 327.583527,488.732117 324.493988,492.110718 
	C321.710175,495.155060 320.523712,499.604858 318.303223,503.233124 
	C315.326202,508.097412 310.045410,508.050842 305.836823,504.250427 
	C304.027954,502.617004 300.717651,502.524597 298.034088,502.037048 
	C296.835297,501.819244 295.388123,502.777802 294.244781,502.476685 
	C286.955200,500.557159 282.791748,504.636810 279.239990,510.002106 
	C277.713043,512.308533 276.648743,516.196655 274.694183,516.694092 
	C269.761169,517.949707 267.327301,521.207397 264.649292,524.934143 
	C259.200439,519.572632 254.098740,514.286682 249.074280,508.648926 
	C250.318176,505.967926 251.785400,503.735565 252.574478,501.284882 
	C253.534195,498.304047 252.454422,496.131866 250.233185,495.475250 
	C248.215927,499.530884 246.606461,502.766663 244.790207,505.739258 
	C242.720490,502.653198 240.857574,499.830322 238.994659,497.007446 
z"/>
<path fill="#30BF8F" opacity="1.000000" stroke="none" 
	d="
M408.605713,301.634766 
	C409.747467,307.154022 408.829346,308.268433 403.681824,307.361816 
	C400.148743,306.739532 397.379761,307.657043 396.729279,311.141937 
	C395.644073,316.955597 390.817413,319.153656 387.031616,322.417969 
	C385.253998,323.950775 383.471405,325.478424 381.665222,326.977295 
	C380.940399,327.578766 379.991211,328.704102 379.408417,328.555359 
	C375.222534,327.487122 373.867828,329.931396 372.645172,333.221802 
	C371.681946,335.814148 365.067993,337.438629 361.727356,337.201447 
	C357.113007,336.873871 352.338318,336.897186 347.842651,337.808289 
	C346.200806,338.141052 345.160980,341.444489 343.109283,344.485260 
	C342.135773,338.595184 341.370239,333.963409 340.257080,329.152466 
	C339.743805,319.735657 342.923004,311.820251 350.110229,306.022339 
	C352.980164,303.707153 356.841888,302.621490 360.638885,300.924988 
	C370.369751,301.031464 379.713531,301.210266 389.058014,301.339264 
	C395.456451,301.427612 401.855804,301.446655 408.605713,301.634766 
z"/>
<path fill="#169D88" opacity="1.000000" stroke="none" 
	d="
M248.997040,509.000793 
	C254.098740,514.286682 259.200439,519.572632 264.732788,525.265747 
	C268.116211,528.467651 270.974762,531.371277 274.047760,534.026855 
	C277.254211,536.797852 280.667206,539.329834 283.989929,541.966248 
	C282.908356,541.986023 281.826813,542.005798 280.340607,542.039734 
	C273.488586,537.090637 266.552307,532.637146 260.714691,527.038086 
	C253.029495,519.666992 246.155609,511.442200 239.050674,503.479340 
	C237.211349,501.417877 235.811630,498.964142 234.071945,496.374786 
	C235.393478,496.277100 236.853058,496.495239 238.653656,496.860413 
	C240.857574,499.830322 242.720490,502.653198 245.006714,505.973083 
	C246.619019,507.313629 247.808029,508.157227 248.997040,509.000793 
z"/>
<path fill="#30BF8F" opacity="1.000000" stroke="none" 
	d="
M539.030029,312.612335 
	C538.318054,312.999664 537.553345,313.014282 536.120728,312.845154 
	C531.502991,307.867096 526.319275,305.238037 520.362610,303.817383 
	C519.423828,303.593475 518.709656,302.428040 517.891602,301.697968 
	C520.924011,301.842743 523.956360,301.987518 527.376526,302.213318 
	C532.383301,304.615723 536.601501,307.389038 539.030029,312.612335 
z"/>
<path fill="#2AB98F" opacity="1.000000" stroke="none" 
	d="
M210.164383,385.739655 
	C209.567337,386.015533 209.165039,386.015625 208.460709,386.016449 
	C208.118271,384.295776 208.077850,382.574341 208.108673,380.429199 
	C208.906311,381.824921 209.632706,383.644409 210.164383,385.739655 
z"/>
<path fill="#24B28F" opacity="1.000000" stroke="none" 
	d="
M517.541138,301.640411 
	C518.709656,302.428040 519.423828,303.593475 520.362610,303.817383 
	C526.319275,305.238037 531.502991,307.867096 535.738464,312.853394 
	C537.216797,316.425568 534.565063,316.205231 532.601746,317.044189 
	C530.668823,317.870209 528.313354,319.049591 527.438477,320.743103 
	C525.308655,324.865692 522.263123,324.614197 519.055176,323.136292 
	C510.118561,319.019043 507.079773,318.907013 502.104950,327.059570 
	C497.396637,334.775299 490.066437,335.479218 482.980682,336.820770 
	C470.408234,339.201172 459.167786,343.571838 450.868011,353.788910 
	C450.553528,354.176056 450.357025,354.724274 449.963593,354.972290 
	C444.227417,358.588684 438.292603,361.860229 433.910767,367.350769 
	C432.960175,368.541931 430.262848,368.339142 427.945862,368.876831 
	C427.796448,369.892670 427.803345,371.373566 427.342987,372.691162 
	C425.925720,376.747559 424.048035,376.891449 420.266785,375.027466 
	C417.707245,373.765686 412.842834,372.589722 411.707214,373.835266 
	C407.144531,378.839447 401.299438,376.218414 396.280029,377.708832 
	C396.128082,377.753906 395.992523,377.854218 395.499146,378.111145 
	C396.942963,383.179077 393.070068,385.760529 389.818451,388.396454 
	C388.782684,389.236176 386.475494,389.051453 384.947784,388.625793 
	C381.884979,387.772522 380.119659,388.054230 378.803070,391.490967 
	C378.092529,393.345642 375.626495,395.409912 373.673187,395.743378 
	C367.449219,396.805817 362.390259,398.484863 359.760590,405.205109 
	C358.566589,408.256470 355.044952,410.397034 351.901947,413.652100 
	C351.328705,412.457245 350.395203,411.164154 350.101074,409.739044 
	C349.702271,407.806610 350.074371,405.701752 349.592834,403.803528 
	C349.138062,402.010773 348.006653,400.389679 347.172882,398.693054 
	C345.781555,399.709106 344.390228,400.725159 341.999817,402.470856 
	C341.999817,391.938660 341.999817,381.939514 342.001129,371.472168 
	C344.747803,369.832428 347.489594,368.258636 350.139893,371.247223 
	C350.424927,371.568604 351.315430,371.860382 351.488617,371.698639 
	C355.130249,368.296875 360.318817,365.431396 361.897461,361.221008 
	C363.924377,355.814941 366.213501,353.195374 372.190216,353.101959 
	C378.164459,353.008575 384.172668,351.508148 390.052277,350.136902 
	C394.337891,349.137482 398.507202,347.511108 402.586029,345.820770 
	C404.062683,345.208771 405.664703,343.829437 406.276306,342.400726 
	C408.105103,338.128448 410.879791,335.197754 415.387482,333.840393 
	C416.599518,333.475403 417.707672,332.580078 418.713715,331.747284 
	C423.876007,327.473846 428.533752,327.837006 432.901489,333.041229 
	C433.215546,332.682526 433.714447,332.377777 433.781189,331.997223 
	C435.029877,324.875702 439.466064,322.876648 446.191498,325.340546 
	C448.277039,326.104614 451.451935,324.161194 454.039215,323.214478 
	C456.594879,322.279236 459.150391,321.228851 461.490967,319.861084 
	C463.027344,318.963257 465.216888,317.486359 465.313324,316.139862 
	C465.600433,312.130768 466.141785,308.643951 469.758362,306.119812 
	C470.402832,305.670013 469.992157,303.708374 469.992767,302.083801 
	C483.652985,301.488251 497.389130,301.253754 511.688660,301.138306 
	C512.252014,301.257294 512.589783,301.309967 512.589783,301.309967 
	C512.589783,301.309967 512.904907,301.167786 512.904907,301.167786 
	C514.333496,301.306122 515.762085,301.444489 517.541138,301.640411 
M527.587891,312.503082 
	C527.243835,312.365570 526.899841,312.228058 526.555786,312.090576 
	C526.512390,312.245636 526.418823,312.531158 526.432983,312.536621 
	C526.776855,312.668915 527.132263,312.771393 527.587891,312.503082 
M521.722473,317.839264 
	C521.888794,317.959015 522.055115,318.078766 522.221436,318.198517 
	C522.116394,318.023102 522.011353,317.847717 521.722473,317.839264 
z"/>
<path fill="#2AB98F" opacity="1.000000" stroke="none" 
	d="
M512.697144,301.127319 
	C512.904907,301.167786 512.589783,301.309967 512.589783,301.309967 
	C512.589783,301.309967 512.252014,301.257294 512.159546,301.185425 
	C512.067017,301.113525 512.489441,301.086853 512.697144,301.127319 
z"/>
<path fill="#139988" opacity="1.000000" stroke="none" 
	d="
M537.008911,449.591797 
	C536.129944,452.148224 535.263916,454.285461 533.889587,456.585266 
	C531.889343,454.983490 530.682312,452.780731 528.827148,451.575195 
	C526.882446,450.311523 524.327576,449.607635 522.013489,449.539825 
	C521.380798,449.521301 520.834412,452.773163 519.918518,454.330109 
	C519.116638,455.693176 517.965698,456.919708 516.747192,457.942413 
	C516.048279,458.529083 514.701172,458.341705 513.999146,458.926758 
	C509.144989,462.972412 504.422943,467.176575 499.567261,471.220276 
	C498.238373,472.326965 496.701752,473.367310 495.083405,473.912170 
	C487.261139,476.545959 479.042206,478.287933 471.641327,481.781250 
	C467.085785,483.931519 461.477997,486.514038 460.786011,493.180298 
	C460.700745,494.001770 458.723358,495.225006 457.605194,495.244293 
	C450.169586,495.372711 445.655151,502.826141 438.219391,502.839691 
	C437.912659,502.840271 437.668427,503.653259 437.292084,503.962311 
	C432.865387,507.597351 428.419037,511.208405 423.709717,515.044189 
	C420.981781,510.796570 418.889923,510.716431 415.670746,514.118286 
	C413.830475,516.062927 410.481171,519.670654 407.220917,516.342163 
	C404.321442,513.382080 402.866577,513.996704 400.465240,516.632629 
	C397.503845,519.883362 394.491669,523.523193 389.195038,519.572998 
	C388.065613,518.730713 384.388885,519.412231 383.422729,520.620667 
	C381.123932,523.495850 379.753632,527.111145 377.988556,530.416931 
	C377.418884,531.483826 376.787750,532.517944 376.184753,533.567139 
	C375.404388,532.848755 374.735413,531.878662 373.816986,531.472290 
	C372.519592,530.898193 370.420532,529.970093 369.729645,530.523499 
	C362.167175,536.580811 356.005096,544.620361 345.648254,546.602539 
	C344.406189,546.840332 343.466248,548.528381 342.327576,549.473450 
	C341.341064,550.292236 340.343506,551.523926 339.225342,551.681274 
	C335.155823,552.253967 330.921875,553.198364 326.959625,552.604126 
	C321.963959,551.855042 319.316833,553.410095 318.003937,557.997314 
	C313.806915,556.184570 309.609924,554.371826 305.205811,552.283325 
	C304.985931,551.841492 305.003113,551.666321 304.956024,551.510437 
	C302.335571,542.836182 302.424530,543.044189 311.393646,539.180542 
	C317.119202,536.714172 322.518982,533.495911 328.094482,530.673462 
	C329.412872,530.006042 331.046600,529.834534 332.188446,528.974548 
	C333.999969,527.610107 336.308289,526.138123 336.993317,524.209656 
	C338.298248,520.536133 339.723145,518.352783 344.099426,519.362793 
	C347.026978,520.038391 348.815002,518.419861 349.383392,515.458313 
	C350.255066,510.916443 352.612793,508.326324 357.663208,508.909790 
	C358.892487,509.051788 360.740021,508.800781 361.414520,507.990601 
	C366.243744,502.189758 372.684082,505.018311 378.517517,504.131592 
	C384.550446,503.214569 390.754639,501.074768 396.009674,497.983582 
	C402.597107,494.108704 408.916779,490.822784 416.815186,491.454681 
	C417.821167,491.535156 419.518799,489.793060 419.982056,488.553711 
	C421.364044,484.856171 423.031464,482.328613 427.654205,483.547729 
	C428.876740,483.870148 430.461548,483.068024 431.813843,482.593658 
	C434.119019,481.785004 436.382843,480.853729 438.642273,479.921265 
	C439.847137,479.424042 441.325134,479.103607 442.131348,478.209045 
	C445.675629,474.276184 448.659760,469.761963 454.326355,468.406616 
	C455.000549,468.245331 455.283691,466.770782 455.918762,466.056763 
	C457.214996,464.599396 458.624054,463.242035 459.998474,461.855164 
	C460.104736,461.747864 460.402588,461.772156 460.444763,461.667877 
	C463.023712,455.289490 468.680237,454.208130 474.532959,453.381500 
	C475.300781,453.273041 476.082886,452.195923 476.708405,452.320526 
	C481.212402,453.217438 484.477966,452.142487 485.809479,447.319336 
	C485.912231,446.947052 486.606262,446.434662 486.962280,446.480255 
	C494.565033,447.454895 498.896881,440.447235 505.495667,438.869202 
	C507.342407,438.427643 508.731537,436.328979 510.512360,435.307343 
	C515.823486,432.260254 521.375000,430.026215 527.702209,431.510345 
	C529.098328,431.837830 530.462219,432.302734 533.110107,433.074066 
	C532.591064,429.811920 532.078918,427.534821 531.916199,425.233032 
	C531.811584,423.751984 532.220398,422.234650 532.399109,420.733582 
	C533.829956,421.161346 535.359131,421.392242 536.675232,422.049744 
	C543.782715,425.600403 539.906860,431.507385 539.459717,436.496246 
	C539.077576,440.760284 537.866394,444.949982 537.008911,449.591797 
z"/>
<path fill="#1CA68C" opacity="1.000000" stroke="none" 
	d="
M349.009247,433.389313 
	C350.490479,431.955292 352.496796,431.194580 353.438232,429.743164 
	C357.084381,424.121796 360.957031,424.027924 364.296661,429.628418 
	C364.866333,430.583740 366.323181,431.663544 367.255890,431.568146 
	C368.221222,431.469421 369.560547,430.151520 369.844574,429.121094 
	C371.010071,424.892822 373.564056,423.976196 377.733643,424.280670 
	C382.038544,424.595032 385.809052,423.024628 388.981812,419.428467 
	C392.147583,415.840210 396.251343,413.062836 400.032471,410.040741 
	C402.057983,408.421783 404.272797,407.040131 406.395172,405.541473 
	C406.797791,405.257202 407.127960,404.735138 407.558502,404.645905 
	C414.137604,403.282135 420.714233,401.898499 427.320953,400.679169 
	C430.885437,400.021332 434.505768,399.666260 439.153748,399.030579 
	C439.973206,396.979401 441.425537,393.557251 442.715424,390.074982 
	C446.354095,380.251434 453.206268,377.918610 462.082184,383.544159 
	C466.242676,386.181061 467.789703,385.579346 470.008545,380.612518 
	C469.696350,387.208801 470.947937,393.418121 476.262939,397.628479 
	C479.368713,400.088806 483.530090,401.263885 487.293274,402.833191 
	C490.791260,404.291870 490.642975,406.333923 488.156036,408.381958 
	C485.721375,410.386963 483.133545,412.480896 480.123718,408.656067 
	C478.221069,406.238190 475.972229,406.334534 474.181854,409.691498 
	C475.699066,410.552246 477.032532,411.308777 478.481079,412.130585 
	C477.489838,414.167694 476.881409,416.159424 475.661133,417.650391 
	C474.917114,418.559418 472.830353,419.475464 472.028656,419.062958 
	C462.190155,414.000732 455.166779,417.788605 448.694061,425.452728 
	C445.738190,428.952698 441.739807,431.654175 436.476898,431.041138 
	C432.638550,430.594025 431.052734,432.734924 431.004822,436.392029 
	C430.981262,438.189545 430.742584,439.984253 430.601257,441.780212 
	C430.058289,441.741302 429.515350,441.702362 428.972382,441.663452 
	C428.972382,438.249115 429.131500,434.823578 428.892334,431.426086 
	C428.799591,430.108337 427.971191,427.916565 427.186768,427.778625 
	C425.827942,427.539612 423.880127,428.194550 422.813873,429.168915 
	C418.025970,433.544189 417.756683,439.393860 421.588898,444.901062 
	C422.381683,446.040405 422.545227,447.617615 422.998779,448.993011 
	C407.078491,448.994171 391.148407,449.336273 375.241211,448.880341 
	C364.069733,448.560120 354.907043,443.756409 349.009247,433.389313 
z"/>
<path fill="#18A18A" opacity="1.000000" stroke="none" 
	d="
M423.388000,449.026306 
	C422.545227,447.617615 422.381683,446.040405 421.588898,444.901062 
	C417.756683,439.393860 418.025970,433.544189 422.813873,429.168915 
	C423.880127,428.194550 425.827942,427.539612 427.186768,427.778625 
	C427.971191,427.916565 428.799591,430.108337 428.892334,431.426086 
	C429.131500,434.823578 428.972382,438.249115 428.972382,441.663452 
	C429.515350,441.702362 430.058289,441.741302 430.601257,441.780212 
	C430.742584,439.984253 430.981262,438.189545 431.004822,436.392029 
	C431.052734,432.734924 432.638550,430.594025 436.476898,431.041138 
	C441.739807,431.654175 445.738190,428.952698 448.694061,425.452728 
	C455.166779,417.788605 462.190155,414.000732 472.028656,419.062958 
	C472.830353,419.475464 474.917114,418.559418 475.661133,417.650391 
	C476.881409,416.159424 477.489838,414.167694 478.481079,412.130585 
	C477.032532,411.308777 475.699066,410.552246 474.181854,409.691498 
	C475.972229,406.334534 478.221069,406.238190 480.123718,408.656067 
	C483.133545,412.480896 485.721375,410.386963 488.156036,408.381958 
	C490.642975,406.333923 490.791260,404.291870 487.293274,402.833191 
	C483.530090,401.263885 479.368713,400.088806 476.262939,397.628479 
	C470.947937,393.418121 469.696350,387.208801 470.210571,380.309692 
	C470.018219,379.257141 470.017303,378.505768 470.326782,377.236511 
	C471.248688,375.581726 471.933563,374.477692 472.459534,373.302582 
	C475.230255,367.112488 484.265045,361.571869 490.422943,363.364319 
	C497.944000,365.553528 505.503357,368.498779 507.544708,377.489655 
	C508.737488,382.742920 513.084961,382.180054 516.617615,382.376282 
	C517.291565,382.413788 518.404663,378.279114 518.933594,375.981506 
	C519.336182,374.233002 518.759766,372.221619 519.310059,370.555450 
	C519.828674,368.985168 521.169495,366.582855 522.289246,366.502289 
	C527.635986,366.117645 530.670471,363.162964 533.027100,358.785004 
	C533.581909,357.754364 535.278992,357.405029 536.170044,356.473846 
	C537.593445,354.986359 538.795837,353.284912 540.064392,351.652771 
	C540.736084,350.788696 541.350281,349.880005 541.990356,348.991455 
	C541.997192,356.344818 542.004028,363.698151 542.005310,371.518433 
	C538.957520,375.534088 535.783447,378.985260 533.009338,382.732483 
	C532.572205,383.322906 533.945068,385.253235 534.588928,386.827728 
	C533.770874,387.461426 532.893555,388.141113 531.934021,388.884430 
	C532.521362,390.135620 533.117004,391.404572 533.940674,393.159180 
	C532.728149,393.214203 531.694092,393.571259 531.342468,393.228424 
	C528.295227,390.257538 525.747986,391.283661 525.367493,394.881439 
	C524.424316,403.801086 518.040405,406.628998 511.145538,409.767822 
	C508.838562,410.818054 506.737427,414.208435 506.218445,416.857513 
	C505.431610,420.873474 503.738037,421.495392 500.401642,420.426544 
	C493.472198,418.206543 488.061646,420.482147 484.673218,427.037476 
	C484.596954,427.184998 484.570740,427.420441 484.454529,427.476379 
	C477.417358,430.863464 471.839325,436.309479 465.505402,440.633026 
	C463.097687,442.276520 460.669128,443.111938 460.232788,446.156097 
	C459.546021,450.947327 456.438904,451.528503 452.576263,450.781372 
	C447.049713,449.712372 445.800659,450.247528 445.254822,455.689240 
	C444.856232,459.662811 443.957428,461.518585 439.463196,460.348358 
	C438.032013,459.975647 436.016876,461.453766 434.398834,462.325958 
	C433.288605,462.924438 432.385406,464.656067 431.419647,464.632843 
	C428.560211,464.564117 425.715668,463.876190 422.865295,463.430420 
	C424.062317,461.305542 425.223206,459.159210 426.467590,457.062439 
	C427.507019,455.311066 428.644196,453.617706 429.738098,451.898651 
	C427.751129,450.952301 425.764160,450.005920 423.388000,449.026306 
M495.102875,397.953278 
	C506.156036,393.730621 508.026001,380.076996 500.688690,372.994263 
	C495.732208,368.209747 487.996674,365.132202 478.990051,371.925598 
	C473.054779,376.402313 471.476166,382.556030 475.095428,390.172363 
	C477.977997,396.238373 487.773987,400.255096 495.102875,397.953278 
z"/>
<path fill="#18A18A" opacity="1.000000" stroke="none" 
	d="
M284.324951,541.975708 
	C280.667206,539.329834 277.254211,536.797852 274.047760,534.026855 
	C270.974762,531.371277 268.116211,528.467651 265.079926,525.341431 
	C267.327301,521.207397 269.761169,517.949707 274.694183,516.694092 
	C276.648743,516.196655 277.713043,512.308533 279.239990,510.002106 
	C282.791748,504.636810 286.955200,500.557159 294.244781,502.476685 
	C295.388123,502.777802 296.835297,501.819244 298.034088,502.037048 
	C300.717651,502.524597 304.027954,502.617004 305.836823,504.250427 
	C310.045410,508.050842 315.326202,508.097412 318.303223,503.233124 
	C320.523712,499.604858 321.710175,495.155060 324.493988,492.110718 
	C327.583527,488.732117 331.682495,485.912262 335.870087,484.014496 
	C339.365692,482.430298 342.562805,481.451965 345.037933,477.947754 
	C347.416992,474.579651 351.343750,472.304779 354.794586,469.275574 
	C359.095428,470.237152 363.192108,471.472656 367.732666,473.199463 
	C370.121460,478.264313 374.414795,478.321442 378.250641,478.248199 
	C379.525177,478.223877 380.748169,475.500977 381.994751,474.011780 
	C390.910828,472.802704 399.826935,471.593597 409.751740,470.247711 
	C408.554993,471.953979 407.713165,474.297089 406.058868,475.299622 
	C401.001617,478.364349 395.523834,480.629425 391.709900,485.575165 
	C389.624512,488.279480 386.569061,488.434082 383.753876,486.103638 
	C380.026733,483.018311 377.017761,483.487122 374.145203,487.500183 
	C371.395233,491.341949 367.214020,490.884369 364.418701,486.911377 
	C363.157440,485.118744 361.578278,483.549774 360.143341,481.879333 
	C359.528564,482.151489 358.913818,482.423645 358.299042,482.695831 
	C358.617981,484.338715 358.831329,486.011261 359.282288,487.617065 
	C359.862244,489.682373 360.632904,491.694092 361.321442,493.728912 
	C359.095154,494.327301 356.869568,494.928436 354.640930,495.518005 
	C354.487091,495.558716 354.238464,495.437683 354.154480,495.518005 
	C347.911346,501.488007 338.317017,498.900574 331.925018,504.213318 
	C330.537720,505.366394 330.230164,507.781067 329.322723,509.562408 
	C328.728851,510.728271 328.185089,512.108459 327.207703,512.852539 
	C324.878174,514.626038 322.469604,516.479980 319.795990,517.579163 
	C314.068634,519.933777 308.170532,521.881348 302.308136,523.895996 
	C299.305176,524.928040 296.220825,525.721375 293.193909,526.687378 
	C292.764740,526.824402 292.085052,527.416504 292.140625,527.651550 
	C293.586517,533.765381 286.987793,536.259216 286.028564,541.632812 
	C285.553314,541.989563 285.106659,541.987366 284.324951,541.975708 
z"/>
<path fill="#1CA68C" opacity="1.000000" stroke="none" 
	d="
M381.560028,474.007660 
	C380.748169,475.500977 379.525177,478.223877 378.250641,478.248199 
	C374.414795,478.321442 370.121460,478.264313 368.090454,473.349731 
	C372.377991,473.340302 376.751648,473.671906 381.560028,474.007660 
z"/>
<path fill="#18A18A" opacity="1.000000" stroke="none" 
	d="
M419.675995,467.462494 
	C417.283936,468.018677 415.142761,468.371643 412.089417,468.874969 
	C416.000793,464.266418 417.612762,464.117004 419.675995,467.462494 
z"/>
<path fill="#139988" opacity="1.000000" stroke="none" 
	d="
M295.143311,546.748169 
	C294.037384,546.228333 293.093750,545.441589 292.067200,544.339600 
	C293.109772,543.626221 294.235229,543.228027 295.360657,542.829834 
	C295.342285,544.046936 295.323914,545.264099 295.143311,546.748169 
z"/>
<path fill="#1CA68C" opacity="1.000000" stroke="none" 
	d="
M541.994995,348.523682 
	C541.350281,349.880005 540.736084,350.788696 540.064392,351.652771 
	C538.795837,353.284912 537.593445,354.986359 536.170044,356.473846 
	C535.278992,357.405029 533.581909,357.754364 533.027100,358.785004 
	C530.670471,363.162964 527.635986,366.117645 522.289246,366.502289 
	C521.169495,366.582855 519.828674,368.985168 519.310059,370.555450 
	C518.759766,372.221619 519.336182,374.233002 518.933594,375.981506 
	C518.404663,378.279114 517.291565,382.413788 516.617615,382.376282 
	C513.084961,382.180054 508.737488,382.742920 507.544708,377.489655 
	C505.503357,368.498779 497.944000,365.553528 490.422943,363.364319 
	C484.265045,361.571869 475.230255,367.112488 472.459534,373.302582 
	C471.933563,374.477692 471.248688,375.581726 470.328064,376.861023 
	C463.614075,374.003845 463.651031,373.683929 469.154480,369.070099 
	C470.722351,367.755707 472.527649,365.818115 472.757874,363.982361 
	C473.487549,358.164307 477.531189,355.756104 482.079224,356.538971 
	C488.288422,357.607849 491.920441,354.272156 495.401428,350.789795 
	C499.176300,347.013519 502.774872,345.898560 508.209229,346.649323 
	C514.828430,347.563782 520.843079,345.126312 524.458191,338.610382 
	C528.587402,331.167694 528.697327,331.228668 536.516418,330.044006 
	C534.004517,327.176056 531.563171,324.436340 534.580872,320.565491 
	C536.740173,317.795685 538.617798,318.013977 539.620239,320.967468 
	C540.831238,324.535675 541.638000,328.347290 541.904724,332.104279 
	C542.280457,337.397064 541.999634,342.736481 541.994995,348.523682 
z"/>
<path fill="#109387" opacity="1.000000" stroke="none" 
	d="
M318.272858,558.240967 
	C319.316833,553.410095 321.963959,551.855042 326.959625,552.604126 
	C330.921875,553.198364 335.155823,552.253967 339.225342,551.681274 
	C340.343506,551.523926 341.341064,550.292236 342.327576,549.473450 
	C343.466248,548.528381 344.406189,546.840332 345.648254,546.602539 
	C356.005096,544.620361 362.167175,536.580811 369.729645,530.523499 
	C370.420532,529.970093 372.519592,530.898193 373.816986,531.472290 
	C374.735413,531.878662 375.404388,532.848755 376.184753,533.567139 
	C376.787750,532.517944 377.418884,531.483826 377.988556,530.416931 
	C379.753632,527.111145 381.123932,523.495850 383.422729,520.620667 
	C384.388885,519.412231 388.065613,518.730713 389.195038,519.572998 
	C394.491669,523.523193 397.503845,519.883362 400.465240,516.632629 
	C402.866577,513.996704 404.321442,513.382080 407.220917,516.342163 
	C410.481171,519.670654 413.830475,516.062927 415.670746,514.118286 
	C418.889923,510.716431 420.981781,510.796570 423.709717,515.044189 
	C428.419037,511.208405 432.865387,507.597351 437.292084,503.962311 
	C437.668427,503.653259 437.912659,502.840271 438.219391,502.839691 
	C445.655151,502.826141 450.169586,495.372711 457.605194,495.244293 
	C458.723358,495.225006 460.700745,494.001770 460.786011,493.180298 
	C461.477997,486.514038 467.085785,483.931519 471.641327,481.781250 
	C479.042206,478.287933 487.261139,476.545959 495.083405,473.912170 
	C496.701752,473.367310 498.238373,472.326965 499.567261,471.220276 
	C504.422943,467.176575 509.144989,462.972412 513.999146,458.926758 
	C514.701172,458.341705 516.048279,458.529083 516.747192,457.942413 
	C517.965698,456.919708 519.116638,455.693176 519.918518,454.330109 
	C520.834412,452.773163 521.380798,449.521301 522.013489,449.539825 
	C524.327576,449.607635 526.882446,450.311523 528.827148,451.575195 
	C530.682312,452.780731 531.889343,454.983490 533.693115,456.879395 
	C532.433472,461.347961 531.076782,465.778503 529.237610,469.998810 
	C526.808289,475.573425 524.000854,480.983215 521.120972,486.950592 
	C519.928223,485.958832 519.211792,484.936890 518.282104,484.676392 
	C516.167419,484.083801 513.277161,482.807404 511.892334,483.685669 
	C507.030212,486.769135 502.668030,490.641937 498.124573,494.225861 
	C497.220520,494.938995 496.020630,496.517059 495.520691,496.313324 
	C489.666687,493.927795 486.701324,500.242371 481.751556,500.697693 
	C477.987732,501.043945 475.625763,503.488892 474.809723,507.496185 
	C474.076385,511.097412 472.322266,513.163696 468.742493,509.630981 
	C466.662537,507.578339 464.916382,507.663574 463.082916,510.341217 
	C462.009613,511.908783 460.030029,512.905579 458.355316,514.002075 
	C453.719055,517.037476 448.392670,519.277527 446.737488,525.435791 
	C446.401520,526.685791 445.222626,528.382812 444.133270,528.648743 
	C436.351593,530.548157 428.549072,532.566406 420.629578,533.594727 
	C417.536896,533.996277 416.451172,534.515686 415.695038,537.479309 
	C414.651703,541.568542 412.123047,541.891846 408.405182,539.495544 
	C407.202698,538.720520 404.658783,538.494324 403.641876,539.248535 
	C400.470673,541.600525 397.716644,544.520874 394.841309,547.263306 
	C393.403839,548.634277 392.304077,550.692749 390.615570,551.401245 
	C386.474396,553.139038 383.606628,555.098022 382.151825,560.018799 
	C381.373535,562.651489 376.566315,564.017944 375.839478,567.955200 
	C375.780884,568.272461 374.690460,568.596436 374.084778,568.586853 
	C355.015533,568.284912 336.456909,565.145813 318.272858,558.240967 
z"/>
<path fill="#21AD8D" opacity="1.000000" stroke="none" 
	d="
M249.074280,508.648926 
	C247.808029,508.157227 246.619019,507.313629 245.213501,506.236267 
	C246.606461,502.766663 248.215927,499.530884 250.233185,495.475250 
	C252.454422,496.131866 253.534195,498.304047 252.574478,501.284882 
	C251.785400,503.735565 250.318176,505.967926 249.074280,508.648926 
z"/>
<path fill="#21AD8D" opacity="1.000000" stroke="none" 
	d="
M527.536743,312.691162 
	C527.132263,312.771393 526.776855,312.668915 526.432983,312.536621 
	C526.418823,312.531158 526.512390,312.245636 526.555786,312.090576 
	C526.899841,312.228058 527.243835,312.365570 527.536743,312.691162 
z"/>
<path fill="#21AD8D" opacity="1.000000" stroke="none" 
	d="
M521.814331,317.755798 
	C522.011353,317.847717 522.116394,318.023102 522.221436,318.198517 
	C522.055115,318.078766 521.888794,317.959015 521.814331,317.755798 
z"/>
<path fill="#000000" opacity="1.000000" stroke="none" 
	d="
M494.703003,398.000732 
	C487.773987,400.255096 477.977997,396.238373 475.095428,390.172363 
	C471.476166,382.556030 473.054779,376.402313 478.990051,371.925598 
	C487.996674,365.132202 495.732208,368.209747 500.688690,372.994263 
	C508.026001,380.076996 506.156036,393.730621 494.703003,398.000732 
z"/>
</svg>